<mxfile host="Electron" agent="Mozilla/5.0 (Windows NT 10.0; Win64; x64) AppleWebKit/537.36 (KHTML, like Gecko) draw.io/24.7.5 Chrome/126.0.6478.183 Electron/31.3.0 Safari/537.36" version="24.7.5">
  <diagram name="Page-1" id="e7e014a7-5840-1c2e-5031-d8a46d1fe8dd">
    <mxGraphModel dx="121" dy="621" grid="1" gridSize="10" guides="1" tooltips="1" connect="1" arrows="1" fold="1" page="1" pageScale="1" pageWidth="1169" pageHeight="826" background="none" math="0" shadow="0">
      <root>
        <mxCell id="0" />
        <mxCell id="1" parent="0" />
        <mxCell id="yj0IZDKntq9lQ7aZM51k-27" style="edgeStyle=orthogonalEdgeStyle;rounded=0;orthogonalLoop=1;jettySize=auto;html=1;exitX=0.5;exitY=1;exitDx=0;exitDy=0;entryX=0.5;entryY=0;entryDx=0;entryDy=0;" parent="1" edge="1">
          <mxGeometry relative="1" as="geometry">
            <mxPoint x="1295" y="1028" as="sourcePoint" />
            <mxPoint x="1295" y="1058" as="targetPoint" />
          </mxGeometry>
        </mxCell>
        <mxCell id="yj0IZDKntq9lQ7aZM51k-29" value="" style="ellipse;shape=endState;fillColor=#000000;strokeColor=#ff0000" parent="1" vertex="1">
          <mxGeometry x="1280" y="1060" width="30" height="30" as="geometry" />
        </mxCell>
        <mxCell id="yj0IZDKntq9lQ7aZM51k-49" value="" style="ellipse;shape=endState;fillColor=#000000;strokeColor=#ff0000" parent="1" vertex="1">
          <mxGeometry x="1590" y="1191" width="30" height="30" as="geometry" />
        </mxCell>
        <mxCell id="yj0IZDKntq9lQ7aZM51k-51" style="edgeStyle=orthogonalEdgeStyle;rounded=0;orthogonalLoop=1;jettySize=auto;html=1;exitX=0.5;exitY=1;exitDx=0;exitDy=0;entryX=0.5;entryY=0;entryDx=0;entryDy=0;" parent="1" target="yj0IZDKntq9lQ7aZM51k-49" edge="1">
          <mxGeometry relative="1" as="geometry">
            <mxPoint x="1605.5" y="1171" as="sourcePoint" />
          </mxGeometry>
        </mxCell>
        <mxCell id="yj0IZDKntq9lQ7aZM51k-52" value="" style="rhombus;whiteSpace=wrap;html=1;" parent="1" vertex="1">
          <mxGeometry x="1585.5" y="1061" width="40" height="38" as="geometry" />
        </mxCell>
        <mxCell id="yj0IZDKntq9lQ7aZM51k-53" style="edgeStyle=orthogonalEdgeStyle;rounded=0;orthogonalLoop=1;jettySize=auto;html=1;exitX=0.5;exitY=1;exitDx=0;exitDy=0;entryX=0.5;entryY=0;entryDx=0;entryDy=0;" parent="1" source="yj0IZDKntq9lQ7aZM51k-52" edge="1">
          <mxGeometry relative="1" as="geometry">
            <mxPoint x="1605.5" y="1121" as="targetPoint" />
          </mxGeometry>
        </mxCell>
        <mxCell id="HGIS9QUblZHvX0Hls0c1-19" style="edgeStyle=orthogonalEdgeStyle;rounded=0;orthogonalLoop=1;jettySize=auto;html=1;entryX=0;entryY=0.5;entryDx=0;entryDy=0;" parent="1" source="x4O0b5mxTOjlW43K1z3S-25" target="yj0IZDKntq9lQ7aZM51k-76" edge="1">
          <mxGeometry relative="1" as="geometry">
            <Array as="points">
              <mxPoint x="1500" y="980" />
              <mxPoint x="1440" y="980" />
              <mxPoint x="1440" y="1240" />
              <mxPoint x="1770" y="1240" />
              <mxPoint x="1770" y="488" />
            </Array>
            <mxPoint x="1516" y="937" as="sourcePoint" />
          </mxGeometry>
        </mxCell>
        <mxCell id="yj0IZDKntq9lQ7aZM51k-55" style="edgeStyle=orthogonalEdgeStyle;rounded=0;orthogonalLoop=1;jettySize=auto;html=1;exitX=0.5;exitY=1;exitDx=0;exitDy=0;entryX=0;entryY=0.5;entryDx=0;entryDy=0;" parent="1" source="HGIS9QUblZHvX0Hls0c1-15" target="yj0IZDKntq9lQ7aZM51k-52" edge="1">
          <mxGeometry relative="1" as="geometry">
            <mxPoint x="1536" y="1091" as="sourcePoint" />
          </mxGeometry>
        </mxCell>
        <mxCell id="yj0IZDKntq9lQ7aZM51k-57" style="edgeStyle=orthogonalEdgeStyle;rounded=0;orthogonalLoop=1;jettySize=auto;html=1;exitX=0.5;exitY=1;exitDx=0;exitDy=0;entryX=1;entryY=0.5;entryDx=0;entryDy=0;" parent="1" source="HGIS9QUblZHvX0Hls0c1-14" target="yj0IZDKntq9lQ7aZM51k-52" edge="1">
          <mxGeometry relative="1" as="geometry">
            <mxPoint x="1676" y="955.9999999999998" as="sourcePoint" />
          </mxGeometry>
        </mxCell>
        <mxCell id="HGIS9QUblZHvX0Hls0c1-18" style="edgeStyle=orthogonalEdgeStyle;rounded=0;orthogonalLoop=1;jettySize=auto;html=1;entryX=0;entryY=0.5;entryDx=0;entryDy=0;" parent="1" source="x4O0b5mxTOjlW43K1z3S-19" target="yj0IZDKntq9lQ7aZM51k-76" edge="1">
          <mxGeometry relative="1" as="geometry">
            <Array as="points">
              <mxPoint x="1500" y="820" />
              <mxPoint x="1440" y="820" />
              <mxPoint x="1440" y="1240" />
              <mxPoint x="1770" y="1240" />
              <mxPoint x="1770" y="488" />
            </Array>
            <mxPoint x="1516" y="797" as="sourcePoint" />
          </mxGeometry>
        </mxCell>
        <mxCell id="HGIS9QUblZHvX0Hls0c1-20" style="edgeStyle=orthogonalEdgeStyle;rounded=0;orthogonalLoop=1;jettySize=auto;html=1;entryX=0;entryY=0.5;entryDx=0;entryDy=0;" parent="1" source="x4O0b5mxTOjlW43K1z3S-29" target="yj0IZDKntq9lQ7aZM51k-76" edge="1">
          <mxGeometry relative="1" as="geometry">
            <Array as="points">
              <mxPoint x="1700" y="820" />
              <mxPoint x="1770" y="820" />
              <mxPoint x="1770" y="488" />
            </Array>
            <mxPoint x="1696" y="797" as="sourcePoint" />
          </mxGeometry>
        </mxCell>
        <mxCell id="yj0IZDKntq9lQ7aZM51k-75" style="edgeStyle=orthogonalEdgeStyle;rounded=0;orthogonalLoop=1;jettySize=auto;html=1;exitX=0.5;exitY=1;exitDx=0;exitDy=0;entryX=0.5;entryY=0;entryDx=0;entryDy=0;" parent="1" source="yj0IZDKntq9lQ7aZM51k-76" edge="1">
          <mxGeometry relative="1" as="geometry">
            <mxPoint x="1867.75" y="543" as="targetPoint" />
          </mxGeometry>
        </mxCell>
        <mxCell id="yj0IZDKntq9lQ7aZM51k-76" value="进入重置密码界面" style="" parent="1" vertex="1">
          <mxGeometry x="1812.75" y="463" width="110" height="50" as="geometry" />
        </mxCell>
        <mxCell id="yj0IZDKntq9lQ7aZM51k-77" style="edgeStyle=orthogonalEdgeStyle;rounded=0;orthogonalLoop=1;jettySize=auto;html=1;exitX=0.5;exitY=1;exitDx=0;exitDy=0;entryX=0.5;entryY=0;entryDx=0;entryDy=0;" parent="1" edge="1">
          <mxGeometry relative="1" as="geometry">
            <mxPoint x="1867.75" y="593" as="sourcePoint" />
            <mxPoint x="1867.75" y="623" as="targetPoint" />
          </mxGeometry>
        </mxCell>
        <mxCell id="yj0IZDKntq9lQ7aZM51k-79" style="edgeStyle=orthogonalEdgeStyle;rounded=0;orthogonalLoop=1;jettySize=auto;html=1;exitX=0.5;exitY=1;exitDx=0;exitDy=0;entryX=0.5;entryY=0;entryDx=0;entryDy=0;" parent="1" edge="1">
          <mxGeometry relative="1" as="geometry">
            <mxPoint x="1867.75" y="673" as="sourcePoint" />
            <mxPoint x="1867.75" y="707" as="targetPoint" />
          </mxGeometry>
        </mxCell>
        <mxCell id="yj0IZDKntq9lQ7aZM51k-82" value="" style="ellipse;shape=endState;fillColor=#000000;strokeColor=#ff0000" parent="1" vertex="1">
          <mxGeometry x="1852.75" y="951" width="30" height="30" as="geometry" />
        </mxCell>
        <mxCell id="yj0IZDKntq9lQ7aZM51k-83" style="edgeStyle=orthogonalEdgeStyle;rounded=0;orthogonalLoop=1;jettySize=auto;html=1;exitX=0.5;exitY=1;exitDx=0;exitDy=0;entryX=0.5;entryY=0;entryDx=0;entryDy=0;" parent="1" target="yj0IZDKntq9lQ7aZM51k-82" edge="1">
          <mxGeometry relative="1" as="geometry">
            <mxPoint x="1867.25" y="921" as="sourcePoint" />
          </mxGeometry>
        </mxCell>
        <mxCell id="yj0IZDKntq9lQ7aZM51k-88" style="edgeStyle=orthogonalEdgeStyle;rounded=0;orthogonalLoop=1;jettySize=auto;html=1;entryX=0;entryY=0.5;entryDx=0;entryDy=0;" parent="1" source="x4O0b5mxTOjlW43K1z3S-43" edge="1">
          <mxGeometry relative="1" as="geometry">
            <Array as="points">
              <mxPoint x="1315" y="580" />
              <mxPoint x="1415" y="580" />
              <mxPoint x="1415" y="488" />
            </Array>
            <mxPoint x="1551" y="488" as="targetPoint" />
            <mxPoint x="1315" y="552.0000000000001" as="sourcePoint" />
          </mxGeometry>
        </mxCell>
        <mxCell id="yj0IZDKntq9lQ7aZM51k-89" style="edgeStyle=orthogonalEdgeStyle;rounded=0;orthogonalLoop=1;jettySize=auto;html=1;entryX=0;entryY=0.5;entryDx=0;entryDy=0;" parent="1" source="x4O0b5mxTOjlW43K1z3S-48" edge="1">
          <mxGeometry relative="1" as="geometry">
            <Array as="points">
              <mxPoint x="1315" y="710" />
              <mxPoint x="1415" y="710" />
              <mxPoint x="1415" y="488" />
            </Array>
            <mxPoint x="1551" y="488" as="targetPoint" />
            <mxPoint x="1315" y="679.9999999999999" as="sourcePoint" />
          </mxGeometry>
        </mxCell>
        <mxCell id="yj0IZDKntq9lQ7aZM51k-90" style="edgeStyle=orthogonalEdgeStyle;rounded=0;orthogonalLoop=1;jettySize=auto;html=1;entryX=0;entryY=0.5;entryDx=0;entryDy=0;" parent="1" source="x4O0b5mxTOjlW43K1z3S-52" edge="1">
          <mxGeometry relative="1" as="geometry">
            <Array as="points">
              <mxPoint x="1315" y="840" />
              <mxPoint x="1415" y="840" />
              <mxPoint x="1415" y="488" />
            </Array>
            <mxPoint x="1551" y="488" as="targetPoint" />
            <mxPoint x="1315" y="808" as="sourcePoint" />
          </mxGeometry>
        </mxCell>
        <mxCell id="yj0IZDKntq9lQ7aZM51k-91" style="edgeStyle=orthogonalEdgeStyle;rounded=0;orthogonalLoop=1;jettySize=auto;html=1;entryX=0;entryY=0.5;entryDx=0;entryDy=0;" parent="1" source="x4O0b5mxTOjlW43K1z3S-56" edge="1">
          <mxGeometry relative="1" as="geometry">
            <Array as="points">
              <mxPoint x="1315" y="970" />
              <mxPoint x="1415" y="970" />
              <mxPoint x="1415" y="488" />
            </Array>
            <mxPoint x="1551" y="488" as="targetPoint" />
            <mxPoint x="1315" y="936" as="sourcePoint" />
          </mxGeometry>
        </mxCell>
        <mxCell id="HGIS9QUblZHvX0Hls0c1-1" value="进入注册界面" style="rounded=1;whiteSpace=wrap;html=1;" parent="1" vertex="1">
          <mxGeometry x="1240.5" y="463" width="110" height="49" as="geometry" />
        </mxCell>
        <mxCell id="HGIS9QUblZHvX0Hls0c1-2" value="输入手机号" style="rounded=1;whiteSpace=wrap;html=1;" parent="1" vertex="1">
          <mxGeometry x="1240.5" y="592" width="110" height="49" as="geometry" />
        </mxCell>
        <mxCell id="HGIS9QUblZHvX0Hls0c1-3" value="获取验证码" style="rounded=1;whiteSpace=wrap;html=1;" parent="1" vertex="1">
          <mxGeometry x="1240.5" y="720" width="110" height="49" as="geometry" />
        </mxCell>
        <mxCell id="HGIS9QUblZHvX0Hls0c1-4" value="输入验证码" style="rounded=1;whiteSpace=wrap;html=1;" parent="1" vertex="1">
          <mxGeometry x="1240.5" y="848" width="110" height="49" as="geometry" />
        </mxCell>
        <mxCell id="HGIS9QUblZHvX0Hls0c1-9" style="edgeStyle=orthogonalEdgeStyle;rounded=0;orthogonalLoop=1;jettySize=auto;html=1;exitX=0.5;exitY=1;exitDx=0;exitDy=0;entryX=0.5;entryY=0;entryDx=0;entryDy=0;" parent="1" source="HGIS9QUblZHvX0Hls0c1-5" target="HGIS9QUblZHvX0Hls0c1-7" edge="1">
          <mxGeometry relative="1" as="geometry" />
        </mxCell>
        <mxCell id="HGIS9QUblZHvX0Hls0c1-5" value="进入登陆界面" style="rounded=1;whiteSpace=wrap;html=1;" parent="1" vertex="1">
          <mxGeometry x="1551" y="463.5" width="110" height="49" as="geometry" />
        </mxCell>
        <mxCell id="x4O0b5mxTOjlW43K1z3S-15" style="edgeStyle=orthogonalEdgeStyle;rounded=0;orthogonalLoop=1;jettySize=auto;html=1;exitX=0.5;exitY=1;exitDx=0;exitDy=0;" parent="1" source="HGIS9QUblZHvX0Hls0c1-7" target="x4O0b5mxTOjlW43K1z3S-14" edge="1">
          <mxGeometry relative="1" as="geometry" />
        </mxCell>
        <mxCell id="HGIS9QUblZHvX0Hls0c1-7" value="选择登录方式" style="rounded=1;whiteSpace=wrap;html=1;" parent="1" vertex="1">
          <mxGeometry x="1551" y="558" width="110" height="49" as="geometry" />
        </mxCell>
        <mxCell id="HGIS9QUblZHvX0Hls0c1-11" value="&lt;span style=&quot;text-wrap: nowrap;&quot;&gt;输入手机号&lt;/span&gt;&lt;br style=&quot;padding: 0px; margin: 0px; text-wrap: nowrap;&quot;&gt;&lt;span style=&quot;text-wrap: nowrap;&quot;&gt;获取验证码&lt;/span&gt;" style="rounded=1;whiteSpace=wrap;html=1;" parent="1" vertex="1">
          <mxGeometry x="1481" y="702" width="110" height="49" as="geometry" />
        </mxCell>
        <mxCell id="HGIS9QUblZHvX0Hls0c1-12" value="&lt;span style=&quot;text-wrap: nowrap;&quot;&gt;输入手机号&lt;/span&gt;" style="rounded=1;whiteSpace=wrap;html=1;" parent="1" vertex="1">
          <mxGeometry x="1621" y="702" width="110" height="49" as="geometry" />
        </mxCell>
        <mxCell id="HGIS9QUblZHvX0Hls0c1-13" value="&lt;span style=&quot;text-wrap: nowrap;&quot;&gt;获取验证码&lt;/span&gt;" style="rounded=1;whiteSpace=wrap;html=1;" parent="1" vertex="1">
          <mxGeometry x="1481" y="839" width="110" height="49" as="geometry" />
        </mxCell>
        <mxCell id="HGIS9QUblZHvX0Hls0c1-14" value="&lt;span style=&quot;text-wrap: nowrap;&quot;&gt;输入密码&lt;/span&gt;" style="rounded=1;whiteSpace=wrap;html=1;" parent="1" vertex="1">
          <mxGeometry x="1621" y="839" width="110" height="49" as="geometry" />
        </mxCell>
        <mxCell id="HGIS9QUblZHvX0Hls0c1-15" value="&lt;span style=&quot;text-wrap: nowrap;&quot;&gt;输入验证码&lt;/span&gt;" style="rounded=1;whiteSpace=wrap;html=1;" parent="1" vertex="1">
          <mxGeometry x="1481" y="994" width="110" height="49" as="geometry" />
        </mxCell>
        <mxCell id="HGIS9QUblZHvX0Hls0c1-17" value="&lt;span style=&quot;text-wrap: nowrap;&quot;&gt;成功登录&lt;/span&gt;" style="rounded=1;whiteSpace=wrap;html=1;" parent="1" vertex="1">
          <mxGeometry x="1550" y="1122" width="110" height="49" as="geometry" />
        </mxCell>
        <mxCell id="HGIS9QUblZHvX0Hls0c1-21" value="&lt;span style=&quot;text-wrap: nowrap;&quot;&gt;输入手机号&lt;/span&gt;" style="rounded=1;whiteSpace=wrap;html=1;" parent="1" vertex="1">
          <mxGeometry x="1812.75" y="543" width="110" height="49" as="geometry" />
        </mxCell>
        <mxCell id="HGIS9QUblZHvX0Hls0c1-22" value="&lt;span style=&quot;text-wrap: nowrap;&quot;&gt;获取验证码&lt;/span&gt;" style="rounded=1;whiteSpace=wrap;html=1;" parent="1" vertex="1">
          <mxGeometry x="1812.75" y="623.5" width="110" height="49" as="geometry" />
        </mxCell>
        <mxCell id="HGIS9QUblZHvX0Hls0c1-23" value="&lt;span style=&quot;text-wrap: nowrap;&quot;&gt;设置密码&lt;/span&gt;" style="rounded=1;whiteSpace=wrap;html=1;" parent="1" vertex="1">
          <mxGeometry x="1812.75" y="707" width="110" height="49" as="geometry" />
        </mxCell>
        <mxCell id="HGIS9QUblZHvX0Hls0c1-24" style="edgeStyle=orthogonalEdgeStyle;rounded=0;orthogonalLoop=1;jettySize=auto;html=1;exitX=0.5;exitY=1;exitDx=0;exitDy=0;entryX=0.5;entryY=0;entryDx=0;entryDy=0;" parent="1" edge="1">
          <mxGeometry relative="1" as="geometry">
            <mxPoint x="1867.75" y="756" as="sourcePoint" />
            <mxPoint x="1867.75" y="790" as="targetPoint" />
          </mxGeometry>
        </mxCell>
        <mxCell id="HGIS9QUblZHvX0Hls0c1-25" value="&lt;span style=&quot;text-wrap: nowrap;&quot;&gt;确认密码&lt;/span&gt;" style="rounded=1;whiteSpace=wrap;html=1;" parent="1" vertex="1">
          <mxGeometry x="1812.75" y="790" width="110" height="49" as="geometry" />
        </mxCell>
        <mxCell id="HGIS9QUblZHvX0Hls0c1-28" style="edgeStyle=orthogonalEdgeStyle;rounded=0;orthogonalLoop=1;jettySize=auto;html=1;exitX=0.5;exitY=1;exitDx=0;exitDy=0;entryX=0.5;entryY=0;entryDx=0;entryDy=0;" parent="1" edge="1">
          <mxGeometry relative="1" as="geometry">
            <mxPoint x="1867.75" y="839" as="sourcePoint" />
            <mxPoint x="1867.75" y="873" as="targetPoint" />
          </mxGeometry>
        </mxCell>
        <mxCell id="HGIS9QUblZHvX0Hls0c1-29" value="&lt;span style=&quot;text-wrap: nowrap;&quot;&gt;成功重置密码&lt;/span&gt;" style="rounded=1;whiteSpace=wrap;html=1;" parent="1" vertex="1">
          <mxGeometry x="1812.75" y="873" width="110" height="49" as="geometry" />
        </mxCell>
        <mxCell id="x4O0b5mxTOjlW43K1z3S-14" value="" style="line;strokeWidth=4;html=1;perimeter=backbonePerimeter;points=[];outlineConnect=0;" parent="1" vertex="1">
          <mxGeometry x="1526" y="646" width="160" height="10" as="geometry" />
        </mxCell>
        <mxCell id="x4O0b5mxTOjlW43K1z3S-16" value="" style="endArrow=classic;html=1;rounded=0;entryX=0.533;entryY=0.011;entryDx=0;entryDy=0;entryPerimeter=0;" parent="1" edge="1">
          <mxGeometry width="50" height="50" relative="1" as="geometry">
            <mxPoint x="1536.18" y="651.1933333333334" as="sourcePoint" />
            <mxPoint x="1535.8100000000002" y="701.999" as="targetPoint" />
          </mxGeometry>
        </mxCell>
        <mxCell id="x4O0b5mxTOjlW43K1z3S-17" value="" style="endArrow=classic;html=1;rounded=0;entryX=0.533;entryY=0.011;entryDx=0;entryDy=0;entryPerimeter=0;" parent="1" edge="1">
          <mxGeometry width="50" height="50" relative="1" as="geometry">
            <mxPoint x="1675.87" y="650.7333333333333" as="sourcePoint" />
            <mxPoint x="1675.87" y="702" as="targetPoint" />
          </mxGeometry>
        </mxCell>
        <mxCell id="x4O0b5mxTOjlW43K1z3S-19" value="" style="line;strokeWidth=4;html=1;perimeter=backbonePerimeter;points=[];outlineConnect=0;" parent="1" vertex="1">
          <mxGeometry x="1480" y="778" width="110" height="10" as="geometry" />
        </mxCell>
        <mxCell id="x4O0b5mxTOjlW43K1z3S-21" value="" style="endArrow=classic;html=1;rounded=0;exitX=0.5;exitY=1;exitDx=0;exitDy=0;" parent="1" source="HGIS9QUblZHvX0Hls0c1-11" target="x4O0b5mxTOjlW43K1z3S-19" edge="1">
          <mxGeometry width="50" height="50" relative="1" as="geometry">
            <mxPoint x="1546.18" y="661.1933333333334" as="sourcePoint" />
            <mxPoint x="1545.8100000000002" y="711.999" as="targetPoint" />
          </mxGeometry>
        </mxCell>
        <mxCell id="x4O0b5mxTOjlW43K1z3S-22" value="" style="endArrow=classic;html=1;rounded=0;exitX=0.5;exitY=1;exitDx=0;exitDy=0;entryX=0.5;entryY=0;entryDx=0;entryDy=0;" parent="1" target="HGIS9QUblZHvX0Hls0c1-13" edge="1">
          <mxGeometry width="50" height="50" relative="1" as="geometry">
            <mxPoint x="1535.89" y="782" as="sourcePoint" />
            <mxPoint x="1535.89" y="812" as="targetPoint" />
          </mxGeometry>
        </mxCell>
        <mxCell id="x4O0b5mxTOjlW43K1z3S-24" value="忘记密码" style="text;html=1;align=center;verticalAlign=middle;resizable=0;points=[];autosize=1;strokeColor=none;fillColor=none;" parent="1" vertex="1">
          <mxGeometry x="1430" y="790" width="70" height="30" as="geometry" />
        </mxCell>
        <mxCell id="x4O0b5mxTOjlW43K1z3S-25" value="" style="line;strokeWidth=4;html=1;perimeter=backbonePerimeter;points=[];outlineConnect=0;" parent="1" vertex="1">
          <mxGeometry x="1481" y="915" width="110" height="10" as="geometry" />
        </mxCell>
        <mxCell id="x4O0b5mxTOjlW43K1z3S-26" value="" style="endArrow=classic;html=1;rounded=0;exitX=0.5;exitY=1;exitDx=0;exitDy=0;" parent="1" target="x4O0b5mxTOjlW43K1z3S-25" edge="1">
          <mxGeometry width="50" height="50" relative="1" as="geometry">
            <mxPoint x="1537" y="888" as="sourcePoint" />
            <mxPoint x="1546.8100000000002" y="848.999" as="targetPoint" />
          </mxGeometry>
        </mxCell>
        <mxCell id="x4O0b5mxTOjlW43K1z3S-27" value="" style="endArrow=classic;html=1;rounded=0;exitX=0.5;exitY=1;exitDx=0;exitDy=0;entryX=0.5;entryY=0;entryDx=0;entryDy=0;" parent="1" target="HGIS9QUblZHvX0Hls0c1-15" edge="1">
          <mxGeometry width="50" height="50" relative="1" as="geometry">
            <mxPoint x="1536.89" y="919" as="sourcePoint" />
            <mxPoint x="1537" y="976" as="targetPoint" />
          </mxGeometry>
        </mxCell>
        <mxCell id="x4O0b5mxTOjlW43K1z3S-28" value="忘记密码" style="text;html=1;align=center;verticalAlign=middle;resizable=0;points=[];autosize=1;strokeColor=none;fillColor=none;" parent="1" vertex="1">
          <mxGeometry x="1430" y="951" width="70" height="30" as="geometry" />
        </mxCell>
        <mxCell id="x4O0b5mxTOjlW43K1z3S-29" value="" style="line;strokeWidth=4;html=1;perimeter=backbonePerimeter;points=[];outlineConnect=0;" parent="1" vertex="1">
          <mxGeometry x="1621" y="778" width="110" height="10" as="geometry" />
        </mxCell>
        <mxCell id="x4O0b5mxTOjlW43K1z3S-30" value="" style="endArrow=classic;html=1;rounded=0;exitX=0.5;exitY=1;exitDx=0;exitDy=0;" parent="1" target="x4O0b5mxTOjlW43K1z3S-29" edge="1">
          <mxGeometry width="50" height="50" relative="1" as="geometry">
            <mxPoint x="1677" y="751" as="sourcePoint" />
            <mxPoint x="1686.8100000000002" y="711.999" as="targetPoint" />
          </mxGeometry>
        </mxCell>
        <mxCell id="x4O0b5mxTOjlW43K1z3S-31" value="" style="endArrow=classic;html=1;rounded=0;exitX=0.5;exitY=1;exitDx=0;exitDy=0;entryX=0.5;entryY=0;entryDx=0;entryDy=0;" parent="1" edge="1">
          <mxGeometry width="50" height="50" relative="1" as="geometry">
            <mxPoint x="1676.89" y="782" as="sourcePoint" />
            <mxPoint x="1677" y="839" as="targetPoint" />
          </mxGeometry>
        </mxCell>
        <mxCell id="x4O0b5mxTOjlW43K1z3S-32" value="忘记密码" style="text;html=1;align=center;verticalAlign=middle;resizable=0;points=[];autosize=1;strokeColor=none;fillColor=none;" parent="1" vertex="1">
          <mxGeometry x="1700" y="790" width="70" height="30" as="geometry" />
        </mxCell>
        <mxCell id="x4O0b5mxTOjlW43K1z3S-43" value="" style="line;strokeWidth=4;html=1;perimeter=backbonePerimeter;points=[];outlineConnect=0;" parent="1" vertex="1">
          <mxGeometry x="1240" y="533" width="110" height="10" as="geometry" />
        </mxCell>
        <mxCell id="x4O0b5mxTOjlW43K1z3S-45" value="" style="endArrow=classic;html=1;rounded=0;exitX=0.5;exitY=1;exitDx=0;exitDy=0;" parent="1" source="HGIS9QUblZHvX0Hls0c1-1" target="x4O0b5mxTOjlW43K1z3S-43" edge="1">
          <mxGeometry width="50" height="50" relative="1" as="geometry">
            <mxPoint x="1330" y="530" as="sourcePoint" />
            <mxPoint x="1380" y="480" as="targetPoint" />
          </mxGeometry>
        </mxCell>
        <mxCell id="x4O0b5mxTOjlW43K1z3S-46" value="" style="endArrow=classic;html=1;rounded=0;" parent="1" source="x4O0b5mxTOjlW43K1z3S-43" target="HGIS9QUblZHvX0Hls0c1-2" edge="1">
          <mxGeometry width="50" height="50" relative="1" as="geometry">
            <mxPoint x="1330" y="580" as="sourcePoint" />
            <mxPoint x="1380" y="530" as="targetPoint" />
          </mxGeometry>
        </mxCell>
        <mxCell id="x4O0b5mxTOjlW43K1z3S-47" value="已有账号" style="text;html=1;align=center;verticalAlign=middle;resizable=0;points=[];autosize=1;strokeColor=none;fillColor=none;" parent="1" vertex="1">
          <mxGeometry x="1315" y="550.5" width="70" height="30" as="geometry" />
        </mxCell>
        <mxCell id="x4O0b5mxTOjlW43K1z3S-48" value="" style="line;strokeWidth=4;html=1;perimeter=backbonePerimeter;points=[];outlineConnect=0;" parent="1" vertex="1">
          <mxGeometry x="1240" y="662" width="110" height="10" as="geometry" />
        </mxCell>
        <mxCell id="x4O0b5mxTOjlW43K1z3S-49" value="" style="endArrow=classic;html=1;rounded=0;exitX=0.5;exitY=1;exitDx=0;exitDy=0;" parent="1" target="x4O0b5mxTOjlW43K1z3S-48" edge="1">
          <mxGeometry width="50" height="50" relative="1" as="geometry">
            <mxPoint x="1296" y="641" as="sourcePoint" />
            <mxPoint x="1380" y="609" as="targetPoint" />
          </mxGeometry>
        </mxCell>
        <mxCell id="x4O0b5mxTOjlW43K1z3S-50" value="" style="endArrow=classic;html=1;rounded=0;" parent="1" edge="1">
          <mxGeometry width="50" height="50" relative="1" as="geometry">
            <mxPoint x="1295.32" y="668.8163636363636" as="sourcePoint" />
            <mxPoint x="1295.32" y="721.18" as="targetPoint" />
          </mxGeometry>
        </mxCell>
        <mxCell id="x4O0b5mxTOjlW43K1z3S-51" value="已有账号" style="text;html=1;align=center;verticalAlign=middle;resizable=0;points=[];autosize=1;strokeColor=none;fillColor=none;" parent="1" vertex="1">
          <mxGeometry x="1315" y="680" width="70" height="30" as="geometry" />
        </mxCell>
        <mxCell id="x4O0b5mxTOjlW43K1z3S-52" value="" style="line;strokeWidth=4;html=1;perimeter=backbonePerimeter;points=[];outlineConnect=0;" parent="1" vertex="1">
          <mxGeometry x="1240" y="790" width="110" height="10" as="geometry" />
        </mxCell>
        <mxCell id="x4O0b5mxTOjlW43K1z3S-53" value="" style="endArrow=classic;html=1;rounded=0;exitX=0.5;exitY=1;exitDx=0;exitDy=0;" parent="1" target="x4O0b5mxTOjlW43K1z3S-52" edge="1">
          <mxGeometry width="50" height="50" relative="1" as="geometry">
            <mxPoint x="1296" y="769" as="sourcePoint" />
            <mxPoint x="1380" y="737" as="targetPoint" />
          </mxGeometry>
        </mxCell>
        <mxCell id="x4O0b5mxTOjlW43K1z3S-54" value="" style="endArrow=classic;html=1;rounded=0;" parent="1" edge="1">
          <mxGeometry width="50" height="50" relative="1" as="geometry">
            <mxPoint x="1295.32" y="796.8163636363636" as="sourcePoint" />
            <mxPoint x="1295.32" y="849.18" as="targetPoint" />
          </mxGeometry>
        </mxCell>
        <mxCell id="x4O0b5mxTOjlW43K1z3S-55" value="已有账号" style="text;html=1;align=center;verticalAlign=middle;resizable=0;points=[];autosize=1;strokeColor=none;fillColor=none;" parent="1" vertex="1">
          <mxGeometry x="1315" y="809" width="70" height="30" as="geometry" />
        </mxCell>
        <mxCell id="x4O0b5mxTOjlW43K1z3S-56" value="" style="line;strokeWidth=4;html=1;perimeter=backbonePerimeter;points=[];outlineConnect=0;" parent="1" vertex="1">
          <mxGeometry x="1240" y="918" width="110" height="10" as="geometry" />
        </mxCell>
        <mxCell id="x4O0b5mxTOjlW43K1z3S-57" value="" style="endArrow=classic;html=1;rounded=0;exitX=0.5;exitY=1;exitDx=0;exitDy=0;" parent="1" target="x4O0b5mxTOjlW43K1z3S-56" edge="1">
          <mxGeometry width="50" height="50" relative="1" as="geometry">
            <mxPoint x="1296" y="897" as="sourcePoint" />
            <mxPoint x="1380" y="865" as="targetPoint" />
          </mxGeometry>
        </mxCell>
        <mxCell id="x4O0b5mxTOjlW43K1z3S-58" value="" style="endArrow=classic;html=1;rounded=0;entryX=0.5;entryY=0;entryDx=0;entryDy=0;" parent="1" target="x4O0b5mxTOjlW43K1z3S-61" edge="1">
          <mxGeometry width="50" height="50" relative="1" as="geometry">
            <mxPoint x="1295.32" y="924.8163636363636" as="sourcePoint" />
            <mxPoint x="1295.5" y="972.9999999999998" as="targetPoint" />
          </mxGeometry>
        </mxCell>
        <mxCell id="x4O0b5mxTOjlW43K1z3S-59" value="已有账号" style="text;html=1;align=center;verticalAlign=middle;resizable=0;points=[];autosize=1;strokeColor=none;fillColor=none;" parent="1" vertex="1">
          <mxGeometry x="1316" y="939" width="70" height="30" as="geometry" />
        </mxCell>
        <mxCell id="x4O0b5mxTOjlW43K1z3S-61" value="&lt;span style=&quot;text-wrap: nowrap;&quot;&gt;成功注册账号&lt;/span&gt;" style="rounded=1;whiteSpace=wrap;html=1;" parent="1" vertex="1">
          <mxGeometry x="1240.5" y="980" width="110" height="49" as="geometry" />
        </mxCell>
        <mxCell id="x4O0b5mxTOjlW43K1z3S-65" value="" style="ellipse;shape=endState;fillColor=#000000;strokeColor=#ff0000" parent="1" vertex="1">
          <mxGeometry x="1435" y="330" width="30" height="30" as="geometry" />
        </mxCell>
        <mxCell id="x4O0b5mxTOjlW43K1z3S-66" value="" style="line;strokeWidth=4;html=1;perimeter=backbonePerimeter;points=[];outlineConnect=0;" parent="1" vertex="1">
          <mxGeometry x="1240" y="408" width="420" height="10" as="geometry" />
        </mxCell>
        <mxCell id="x4O0b5mxTOjlW43K1z3S-67" value="" style="endArrow=classic;html=1;rounded=0;exitX=0.5;exitY=1;exitDx=0;exitDy=0;" parent="1" source="x4O0b5mxTOjlW43K1z3S-65" target="x4O0b5mxTOjlW43K1z3S-66" edge="1">
          <mxGeometry width="50" height="50" relative="1" as="geometry">
            <mxPoint x="1630" y="640" as="sourcePoint" />
            <mxPoint x="1680" y="590" as="targetPoint" />
          </mxGeometry>
        </mxCell>
        <mxCell id="x4O0b5mxTOjlW43K1z3S-68" value="" style="endArrow=classic;html=1;rounded=0;entryX=0.5;entryY=0;entryDx=0;entryDy=0;" parent="1" target="HGIS9QUblZHvX0Hls0c1-1" edge="1">
          <mxGeometry width="50" height="50" relative="1" as="geometry">
            <mxPoint x="1295.25" y="413" as="sourcePoint" />
            <mxPoint x="1295.25" y="458.51099999999997" as="targetPoint" />
          </mxGeometry>
        </mxCell>
        <mxCell id="x4O0b5mxTOjlW43K1z3S-69" value="" style="endArrow=classic;html=1;rounded=0;entryX=0.5;entryY=0;entryDx=0;entryDy=0;" parent="1" edge="1">
          <mxGeometry width="50" height="50" relative="1" as="geometry">
            <mxPoint x="1604.63" y="413.5" as="sourcePoint" />
            <mxPoint x="1605.38" y="463.5" as="targetPoint" />
          </mxGeometry>
        </mxCell>
      </root>
    </mxGraphModel>
  </diagram>
</mxfile>
